<svg xmlns="http://www.w3.org/2000/svg" viewBox="0 0 800 1000" role="img" aria-label="Reisende">
<defs>
 <linearGradient id="sky" x1="0" y1="0" x2="0" y2="1"><stop stop-color="#fffaf1"/><stop offset=".52" stop-color="#eeddbd"/><stop offset="1" stop-color="#b58a56"/></linearGradient>
 <linearGradient id="cloth" x1="0" y1="0" x2="1" y2="1"><stop stop-color="#fffdf7"/><stop offset="1" stop-color="#ddccb0"/></linearGradient>
 <clipPath id="arch"><path d="M100 930V360C100 155 235 65 400 65s300 90 300 295v570z"/></clipPath>
</defs>
<rect width="800" height="1000" fill="#f6f0e6"/>
<g clip-path="url(#arch)">
 <rect x="90" y="50" width="620" height="900" fill="url(#sky)"/>
 <circle cx="410" cy="300" r="176" fill="#f4cd78" opacity=".27"/>
 <path d="M105 730 Q255 560 380 640 T700 475" fill="#12393b" opacity=".78"/>
 <path d="M100 805h600v125H100z" fill="#0c2e30" opacity=".52"/>
 <g opacity=".90"><path d="M210 565 C300 450 340 610 420 485 S570 400 630 520" fill="none" stroke="#c69b58" stroke-width="8" stroke-dasharray="18 14"/><path d="M606 494l36 24-42 9z" fill="#c69b58"/></g>
 <path d="M145 270h120v-85h-120z" fill="none" stroke="#d7b46e" stroke-width="5"/><path d="M175 215h60M175 240h45" stroke="#d7b46e" stroke-width="4"/>
 <g fill="none" stroke="#c69b58" stroke-width="4" opacity=".58">
   <ellipse cx="400" cy="355" rx="132" ry="96"/>
   <ellipse cx="400" cy="545" rx="156" ry="118"/>
 </g>
 <g transform="translate(0 18)">
      <circle cx="400" cy="410" r="47" fill="#b87951"/>
      <path d="M355 385q42-68 92-5v41q-14-46-90-18z" fill="#5e3f2e"/>
      <path d="M315 555q85-120 170 0l58 250H257z" fill="url(#cloth)"/>
      <path d="M350 535l-100 80m200-80 100 80" fill="none" stroke="#f6efe1" stroke-width="30" stroke-linecap="round"/>
    </g>
 <circle cx="400" cy="355" r="220" fill="none" stroke="#d7b06a" stroke-width="2" stroke-dasharray="6 10" opacity=".62"/>
 <text x="645" y="850" text-anchor="middle" font-family="Georgia,serif" font-size="88" fill="#ead7af" opacity=".62">5</text>
</g>
<path d="M100 930V360C100 155 235 65 400 65s300 90 300 295v570" fill="none" stroke="#cfac70" stroke-width="3" opacity=".8"/>
</svg>